<svg width="269.7732831623455" height="304.9200042724609" viewBox="0 0 283.06069366935003 319.93853101859384" class="looka-1j8o68f"><defs id="SvgjsDefs1577"></defs><g id="SvgjsG1578" featurekey="symbolFeature-0" transform="matrix(2.33355975151062,0,0,2.33355975151062,-100.12132005019569,-130.5579717499159)" fill="#ff5722"><path xmlns="http://www.w3.org/2000/svg" d="M103.6 55.95q10.33 0 20.55.04a3.72 3.71-89.9 0 1 3.7 3.72q0 45.71-.03 86.54 0 1.13-1.81 2.99-.34.35-.34.85l.01 7.02a2.45 2.13-8.4 0 1-1.83 2.13q-.04.01-.08.01a2.31 1.99 2 0 1-2.17-2.01l.01-6.86q0-.49-.51-.57-.76-.11-17.52-.12-16.76 0-17.53.11-.51.08-.51.57l.01 6.86a2.31 1.99-1.9 0 1-2.17 2.01q-.04 0-.08-.01a2.45 2.13 8.4 0 1-1.83-2.13l.01-7.02q0-.5-.34-.85-1.81-1.86-1.81-2.99 0-40.83.03-86.54a3.72 3.71 89.9 0 1 3.7-3.72q10.22-.04 20.54-.03m17.75 6.03q1.24.32.79 2.27a.94.93 9.7 0 0 .81 1.13q.09.01.31-.01a1.14 1.13 86.9 0 0 1.01-1.13v-3.79q0-1.25-1.09-.65l-1.84 1q-1.46.8.01 1.18m1.82 12.38q.24.01 1.09-5.3.08-.5-.4-.68-.19-.06-.42-.07t-.43.04q-.49.13-.46.63.38 5.37.62 5.38m-19.25 19.38q1.27 0 2 2.6.14.52.66.37l2.7-.76q.6-.16.44-.76c-.3-1.14-.8-2.07-.25-2.92q.44-.7 1.21-.67.59.03 1.19.64.72.73 1.05.95a.65.64-57.7 0 0 .92-.21l1.52-2.63a.64.64 0 0 0-.24-.88l-1.03-.6q-.47-.27-.6-.8-.28-1.2.93-2.08.4-.29.86-.15l1.22.35q.76.22.76-.57v-3.25q0-.82-.78-.59l-.8.22q-.43.12-.86-.01-1.2-.39-1.36-1.72a.63.61-26.9 0 1 .18-.52l1.93-1.93q.4-.4 0-.8l-2.03-2.04a.69.69 0 0 0-.97.01q-.81.83-1.4 1.08a1.37 1.37 0 0 1-1.84-1.61l.45-1.74q.18-.68-.49-.88l-2.6-.75q-.73-.21-.87.54-.47 2.43-1.86 2.43-1.4-.01-1.85-2.44-.14-.75-.87-.54l-2.61.74q-.67.19-.49.88l.44 1.74a1.37 1.37 0 0 1-1.84 1.6q-.59-.25-1.4-1.09a.69.69 0 0 0-.97-.01l-2.04 2.03q-.4.4 0 .8l1.92 1.94a.63.61 27.1 0 1 .18.52q-.17 1.33-1.37 1.71-.43.13-.86.01l-.8-.22q-.78-.24-.78.58l-.01 3.25q-.01.79.75.58l1.22-.35q.47-.14.86.15 1.21.89.92 2.09-.13.53-.6.8l-1.03.59a.64.64 0 0 0-.24.88l1.5 2.64a.65.64 57.9 0 0 .92.21q.33-.22 1.06-.94.6-.61 1.19-.64.77-.03 1.21.68c.54.85.04 1.78-.27 2.92q-.16.59.44.76l2.7.77q.52.15.66-.37.74-2.6 2.02-2.59m3.189 20.45a.9.9 0 0 0-.908-.893l-5.28.046a.9.9 0 0 0-.892.908l.002.32a.9.9 0 0 0 .908.892l5.28-.046a.9.9 0 0 0 .892-.908zm-13.1 3.745a.97.97 0 0 0-.977-.963l-5.28.037a.97.97 0 0 0-.963.976l.002.28a.97.97 0 0 0 .977.963l5.28-.036a.97.97 0 0 0 .963-.977zm25.94-.037a1.01 1.01 0 0 0-1.013-1.006l-4.84.017a1.01 1.01 0 0 0-1.006 1.013v.26a1.01 1.01 0 0 0 1.014 1.006l4.84-.017a1.01 1.01 0 0 0 1.006-1.013zm-12.78 2.92a1.02 1.02 0 0 0-1.029-1.01l-5.08.044a1.02 1.02 0 0 0-1.01 1.03v.18a1.02 1.02 0 0 0 1.03 1.01l5.08-.044a1.02 1.02 0 0 0 1.01-1.03zm-13.068 3.528a.93.93 0 0 0-.924-.937l-5.46-.038a.93.93 0 0 0-.936.924l-.002.26a.93.93 0 0 0 .924.936l5.46.038a.93.93 0 0 0 .936-.923zm25.97-.045a.91.91 0 0 0-.902-.918l-5.22-.046a.91.91 0 0 0-.918.902l-.002.3a.91.91 0 0 0 .902.918l5.22.046a.91.91 0 0 0 .918-.902zm-12.852 2.84a.81.81 0 0 0-.815-.806l-5.54.03a.81.81 0 0 0-.805.814l.002.54a.81.81 0 0 0 .815.805l5.54-.029a.81.81 0 0 0 .805-.814zm-13.16 3.63a1.08 1.08 0 0 0-1.085-1.075l-5.18.028a1.08 1.08 0 0 0-1.074 1.085v.12a1.08 1.08 0 0 0 1.086 1.075l5.18-.028a1.08 1.08 0 0 0 1.074-1.085zm26.02-.06a1.06 1.06 0 0 0-1.065-1.054l-4.92.026a1.06 1.06 0 0 0-1.054 1.065v.12a1.06 1.06 0 0 0 1.066 1.055l4.92-.026a1.06 1.06 0 0 0 1.054-1.065zm-12.86 2.964a.9.9 0 0 0-.907-.894l-5.36.038a.9.9 0 0 0-.893.906l.002.36a.9.9 0 0 0 .907.894l5.36-.038a.9.9 0 0 0 .893-.906zm12.802 3.423a1 1 0 0 0-.995-1.005l-5.04-.026a1 1 0 0 0-1.005.995l-.002.26a1 1 0 0 0 .995 1.005l5.04.026a1 1 0 0 0 1.005-.995zm-26.05.108a1 1 0 0 0-1-1.001l-5.2-.01a1 1 0 0 0-1 .999l-.001.16a1 1 0 0 0 .998 1.001l5.2.01a1 1 0 0 0 1.002-.999zm13.139 2.982a1.01 1.01 0 0 0-1.014-1.007l-5.1.018a1.01 1.01 0 0 0-1.006 1.013v.1a1.01 1.01 0 0 0 1.014 1.007l5.1-.018a1.01 1.01 0 0 0 1.006-1.013z"></path><circle xmlns="http://www.w3.org/2000/svg" cx="103.81" cy="83.85" r="5.7"></circle></g><g id="SvgjsG1579" featurekey="nameFeature-0" transform="matrix(2.104947328567505,0,0,2.104947328567505,-3.3679158789701598,235.74063529898626)" fill="#ffffff"><path d="M6.92 40 l0 -21.28 l5.04 0 l0 21.28 l-5.04 0 z M1.6 17.04 l0 -5.04 l15.68 0 l0 5.04 l-15.68 0 z M29.999000000000002 40 l0 -5.04 l1.48 0 l0.76 -0.76 l0 -22.2 l5.04 0 l0 24.28 l-3.72 3.72 l-3.56 0 z M24.759 40 l-3.72 -3.72 l0 -24.28 l5.04 0 l0 22.2 l0.76 0.76 l1.48 0 l0 5.04 l-3.56 0 z M45.798 25.16 l-4.76 -13.16 l5.36 0 l3.52 9.68 l3.48 -9.68 l5.36 0 l-4.76 13.16 l-8.2 0 z M41.038000000000004 40 l4.76 -13.16 l8.2 0 l4.76 13.16 l-5.36 0 l-3.48 -9.68 l-3.52 9.68 l-5.36 0 z M71.477 40 l0 -5.04 l1.48 0 l0.76 -0.76 l0 -5.68 l-2.52 0 l0 -5.04 l7.56 0 l0 12.8 l-3.72 3.72 l-3.56 0 z M66.237 40 l-3.72 -3.72 l0 -6.08 l5.04 0 l0 4 l0.76 0.76 l1.48 0 l0 5.04 l-3.56 0 z M62.517 28.52 l0 -12.8 l3.72 -3.72 l3.56 0 l0 5.04 l-1.48 0 l-0.76 0.76 l0 10.72 l-5.04 0 z M73.717 20.96 l0 -3.16 l-0.76 -0.76 l-1.48 0 l0 -5.04 l3.56 0 l3.72 3.72 l0 5.24 l-5.04 0 z M81.716 40 l2.28 -11.2 l8.56 0 l-1.72 -8.56 l-1.36 6.88 l-5.16 0 l3.04 -15.12 l6.96 0 l4.4 21.84 l-10.6 0 l-1.24 6.16 l-5.16 0 z M94.836 40 l-0.92 -4.48 l5.16 0 l0.88 4.48 l-5.12 0 z M108.235 40 l0 -21.28 l5.04 0 l0 21.28 l-5.04 0 z M102.91499999999999 17.04 l0 -5.04 l15.68 0 l0 5.04 l-15.68 0 z M122.35399999999998 28.52 l0 -16.52 l5.04 0 l0 16.52 l-5.04 0 z M122.35399999999998 40 l0 -9.8 l5.04 0 l0 9.8 l-5.04 0 z M129.07399999999998 40 l0 -5.04 l7 0 l0 5.04 l-7 0 z M129.07399999999998 28.52 l0 -5.04 l4.76 0 l0 5.04 l-4.76 0 z M129.07399999999998 17.04 l0 -5.04 l7 0 l0 5.04 l-7 0 z"></path></g></svg>
